<?xml version="1.0" encoding="UTF-8"?>
<svg version="1.1" viewBox="0 0 2933.3 2933.3" xmlns="http://www.w3.org/2000/svg">
<g transform="matrix(1.3333 0 0 -1.3333 0 2933.3)">
<g transform="scale(.1)">
<path d="M 0,0 H 22000 V 22000 H 0 V 0" fill="#feffa7"/>
<path d="m6797.3 18080c-426.94 0-856.29-63.3-1272.3-189.4-727.22-220.4-1378.2-623.4-1882.4-1165.4-508.51-546.5-887.25-1278.8-1066.5-2061.8-184.22-804.8-156.76-1614.6 79.39-2341.8 348.77-1074 1127.9-2067.6 2315.7-2953.1 390.57-291.2 848.47-588.5 1333.2-903.3 1490.3-967.5 3309.3-2148.5 4695.4-4121 1386.2 1972.5 3205.3 3153.6 4695.6 4121.1 484.8 314.7 942.7 612 1333.2 903.2 1187.9 885.6 1967 1879.2 2315.7 2953.1 236.2 727.2 263.6 1537 79.4 2341.8-179.2 783-558 1515.2-1066.5 2061.8-504.3 542.1-1155.2 945-1882.4 1165.4-715.2 216.7-1470.3 248.1-2183.6 90.8-1086.1-239.4-2115-906.1-2897.3-1877.3l-393.9-489.2-394 489.1c-782.38 971.3-1811.4 1638-2897.4 1877.4-298.46 65.8-604.31 98.6-911.37 98.6zm4202.6-15652-434.4 728.1c-577.41 967.8-1322.5 1833.2-2277.9 2645.7-843.7 717.6-1741.7 1300.6-2534 1815-498.94 324-970.21 629.9-1387 940.7-1359.1 1013.2-2258.5 2174.6-2673.3 3451.9-292.62 901-328.36 1896.9-103.36 2880 108.29 473.1 274.42 928.6 493.79 1353.9 224.2 434.6 499.47 828.7 818.18 1171.3 625.95 672.8 1431.6 1172.3 2329.7 1444.5 880.7 266.9 1812.6 305.1 2694.9 110.5 1131.8-249.4 2205.2-874.9 3073.5-1782 868.3 907.1 1941.6 1532.6 3073.4 1782 882.3 194.6 1814.2 156.4 2694.9-110.5 898.2-272.2 1703.8-771.7 2329.7-1444.5 318.7-342.6 594-736.6 818.3-1171.3 219.3-425.3 385.5-880.8 493.8-1353.9 225-983 189.2-1979-103.4-2880-414.7-1277.1-1314.1-2438.5-2673.2-3451.9-416.9-310.7-888.1-616.7-1387-940.6-792.3-514.4-1690.4-1097.4-2534.1-1815-955.4-812.6-1700.6-1678-2278-2645.8l-434.5-728.1" fill="#4b292d"/>
<path d="m15186 16985c26.9-7.3 55.2-10.2 83.8-6.6-28.3-2.4-56.6-0.1-83.8 6.6zm-2292-296.5c14.2-9.8 27.4-21.1 39.5-33.8l0.1 0.1c-12.3 12.9-25.6 24.1-39.6 33.7zm-1256.7-1798.2c-21.6 0-43.5 2.8-66.6 8.8-67.5 17.5-126.2 62.1-161 122.4-42.6 73.8-58.8 190.6 23.5 296.9 8.9 11.5 19.3 23.3 32.6 37.3 16.5 17.2 39.3 39.5 69.8 68 50.9 47.8 124.6 114.5 225.1 203.9 185 164.4 429.9 378.1 689.3 604.3 30.1 26.4 61 53.3 92.5 80.8-8.1 10.1-15.5 20.9-22 32.2-71.8 124.4-29.1 283.4 95.2 355.1 19.1 11 38.9 19.4 59.1 25.1 79.2 41 326.1 190.8 493.4 292.4 115.3 69.9 224.1 136 308.4 185.7 157.6 93 229.5 135.5 342.3 106.6 67.8-17.4 126.2-61.7 161.2-122.3 41.9-72.5 58.3-188.1-21.2-294.9-9.9-13.2-21.5-26.9-36.7-43-19.2-20.6-46.1-47-82-81-24.1-22.8-52.5-49.2-85.5-79.3 264 157.5 515.4 306.7 728 430.9 195.7 114.3 342.3 198 448.3 256 175.8 96.1 264 144.3 380.6 114 67.8-17.5 126.6-62.3 161.5-122.7 71.8-124.3 29.2-283.4-95.2-355.2-25-14.4-51.4-24.2-78.2-29.6-192-89.3-1137.9-655.4-1835.3-1072.8-430.9-257.9-837.9-501.5-1152.4-685.6-170.3-99.8-297.5-172.7-388.8-223-122.7-67.6-201.6-111-285.9-111" fill="#e03c4b"/>
<path d="m4542.8 16722c16.67-11.8 32.08-25.6 45.84-41.4h0.07c-14.05 16.2-29.53 30-45.91 41.4zm7531.1-10136c3.5-2.6 7-5 10.6-7.4-3.6 2.4-7.1 4.9-10.5 7.4zm-1076.9-766.4c-21.7 0-43.6 3.1-67.3 9.2-67.7 17.3-126.4 61.9-161.3 122.3-47.3 81.9-60.1 210.8 45.4 327.1 17.7 19.5 40.3 41 71 67.6 47.3 41 115.3 95.2 208.1 166 163.1 124.4 400.1 297.9 724.4 530.2 399 285.8 897.3 636.9 1420.9 1004.4-619.2-371.3-1192.4-713.8-1655.5-985.6-322.3-189.1-562.4-327-734.1-421.5-301.5-166.1-383.6-201.9-498.3-172.2-69.1 17.9-126.8 61.6-162.3 123.2-23.7 41.1-89.9 187 54.3 341 23.7 25.4 54.9 53.7 98.1 89.1 38.4 31.5 86.3 68.6 144.8 112-42.3-23.6-82.3-45.8-120.1-66.6-442.1-243.5-526.32-275.6-643.51-245-69.08 18.1-126.68 61.9-162.2 123.4-23.34 40.4-88.61 184.3 52.03 337.4 22.19 24.2 51.36 51.6 91.8 86.1 65.51 56.1 160.49 130.9 290.35 228.7 230.43 173.6 564.73 415.2 1022.1 738.5 733.9 518.9 1694.4 1184.4 2660.4 1852.3-975.1-585.5-1928.7-1155.5-2724.2-1620.4-579.3-338.5-1014.9-586.3-1331.6-757.5-178.38-96.4-315.23-166.5-418.37-214.2-157.95-73.2-256.78-105.5-358.89-79.1-71.18 18.4-130.39 63.2-166.73 126.1-49.41 85.6-61.65 227.1 66.43 344.1 19.37 17.7 44.38 37.9 78.71 63.6 42.71 31.9 100.01 72.4 173.98 122.8-92.06-50-165.51-88.2-223.17-116.1-111.78-54.1-198.86-90.4-301.34-63.9-69.61 18-127.64 61.9-163.37 123.8-18.11 31.4-99.57 195.7 74.12 353 23.98 21.7 55.76 47.3 100.01 80.5 74.88 56.3 183.25 132.5 331.31 233.3 82.41 56 176.29 119.1 282.25 189.6-293.06-170.5-524.08-302.5-701-400.7-131.81-73.2-231.73-126.5-305.48-163.1-118.35-58.7-203.57-95.2-306.09-68.6-69.08 18-126.68 61.7-162.21 123.3-19.17 33.2-64.53 132.1-9.65 249.7-45.99-8.7-88.13-8.2-131.46 3-70.82 18.3-129.75 62.9-165.95 125.6-17.87 30.9-98.42 193.2 70.72 349.8 22.9 21.3 53.19 46.2 95.33 78.7 71.16 54.8 174.21 129.2 315.07 227.7 252.28 176.3 618.36 424.2 1119.2 757.9 541.15 360.5 1181.5 782.6 1877.4 1239.5-815.32-487.4-1590.5-948.4-2237.2-1326.9-576.47-337.3-1007.2-583.6-1316.8-752.9-173.19-94.6-305.27-163.5-403.78-210.5-136.04-64.9-240.75-108.7-350.17-80.3-70.29 18.2-128.82 62.6-164.82 124.9-17.4 30.1-96.22 188.2 61.19 341.5 20.38 19.9 46.87 42.5 83.37 71.2 59.33 46.8 145.23 109.7 262.61 192.4 209.82 147.8 516.55 356.2 937.73 637 785.1 523.5 1857.6 1225.2 2993.1 1968.1 115.6 75.7 231.6 151.6 347.7 227.5-1166.6-706.3-2329.6-1408.6-3236.7-1941.6-564.22-331.6-987.51-573.2-1294.1-738.8-172.09-93-304.47-160.4-404.72-206.2-153.62-70.1-250.32-100.9-352.61-74.6-71.79 18.4-131.48 63.4-168.07 126.8-17.93 31.1-98.71 193.9 71.26 350.9 23.59 21.8 54.77 47.4 98.15 80.4 73.03 55.6 178.86 131 323.55 230.4 259.01 178.1 634.96 428.2 1149.4 764.4 110.52 72.3 225.01 146.9 343.24 223.9-127.67-75.2-251.84-148-371.87-218.2-599.73-350.7-1048.4-606.9-1371.6-783.2-180.94-98.7-318.99-170.5-422.08-219.5-162.18-77-257.2-109-358.66-82.7-70.48 18.2-129.16 62.7-165.22 125.2-46.49 80.5-59.69 207.2 42.61 321.2 14.22 15.9 32.24 33.8 56.71 56.4 37.94 35 92.35 82.1 166.38 144 130.55 109.2 319.89 262.7 578.84 469.1 479.6 382.4 1110.4 876.8 1778.2 1400.3 96.58 75.7 195.22 153 294.82 231.1-206.55-124.4-414.92-250-621.28-374.4-658.28-396.9-1280-771.7-1751.6-1049.4-254.2-149.7-443.76-258.8-579.51-333.5-221.57-121.9-316.19-170.1-433.42-139.9-68.15 17.6-127.33 62.4-162.38 123.2-47.89 82.9-60.24 213.3 48.66 330.4 18.38 19.8 41.95 41.7 74.16 69.1 49.96 42.5 121.76 98.7 219.49 172 47.82 35.9 101.51 75.6 161.38 119.4-172.39-100.3-309.41-178.2-415.65-236.6-242.87-133.4-332.86-178-450.07-147.7-69.14 17.9-126.8 61.6-162.35 123.2-45.5 78.8-60.97 211.2 45.13 325.1 16.29 17.5 36.56 36.1 63.79 58.7 7.62 6.3 15.89 13 24.8 20.1-29.46-1.9-56.82 1.4-85.91 8.9-69.64 18-127.69 62-163.44 123.9-46.97 81.4-60.17 208.9 43.64 323 15.24 16.8 34.4 35.2 60.31 58 39.01 34.4 94.89 80.1 170.82 139.6 133.1 104.5 326.16 250.4 590.2 446 273.06 202.4 602.94 443.7 954.04 699.4-403-241.5-773.42-462.8-1074-639.6-232.11-136.5-404.66-236-527.51-304.1-205.59-114-290.69-161.2-408.51-130.7-67.72 17.6-126.57 62.3-161.45 122.7-46.55 80.6-60.02 208.1 41.79 323.9 17.6 20 39.94 41.7 70.32 68.4 45.55 39.9 110.89 92.3 199.74 160.1 58.99 45.1 127.93 96.6 207.53 155.1-168.58-91.4-250.29-125.9-355.63-98.8-68.1 17.5-127.24 62.4-162.28 123.1-20.69 35.8-80 163.7 25.59 303.9 13.42 17.9 30.22 37.1 52.85 60.6 32.59 33.8 79.12 78.2 142.23 135.8 109.16 99.5 267.08 237.6 482.78 422.2 314.4 268.9 714.11 604.5 1122.8 946.6-196.43-117.5-382.34-227.9-547.26-324.5-207.44-121.4-363.58-210.4-477.3-271.8-186.39-100.8-281.09-148-396.35-118.2-69.29 17.9-127.05 61.7-162.67 123.4-44.74 77.5-60.75 207.2 41.41 317.8 11.56 12.5 25.58 26 44.1 42.5 26.1 23.2 62.93 53.9 112.61 93.8 11.13 8.9 22.91 18.3 35.33 28.2-1.97 0.4-3.93 0.9-5.91 1.4-67.85 17.5-126.81 62.2-161.75 122.7-23.13 40.1-87.76 182.1 50.85 328.2 14.03 14.8 32.3 32.6 57.48 56.1 40.15 37.5 98.08 89.5 177.1 158.9 105.19 92.4 236.07 205.5 378.35 328.1-10.16 11.9-19.26 24.7-27.14 38.4-71.79 124.4-29.19 283.4 95.17 355.2 18.65 10.7 38.08 18.9 57.88 24.7 82.16 42.4 349.67 204.2 530.8 313.8 126.74 76.7 246.45 149.1 339.35 203.8 51.62 30.4 90.71 52.8 119.53 68.5 56.38 30.8 133.57 72.9 237.74 46.1 67.68-17.4 126.05-61.6 160.99-122.1 20.62-35.8 53.24-112.5 24.11-206.1 93.35 55.7 182.1 108.2 264.17 156.3 160.93 94.3 282.32 163.5 371.1 211.3 135.68 73.1 233.69 126 349.84 96.1 68.19-17.6 127.42-62.5 162.49-123.3 34.98-60.5 52.45-151.8 10.92-240.4 95.25 55.2 172.45 98.9 233.74 132.5 148.82 81.5 238.68 130.7 353.6 101 67.86-17.5 126.82-62.2 161.77-122.7 43.12-74.7 58.63-193.9-27.2-304.4-12.31-15.8-27.5-32.8-47.8-53.6-28.77-29.3-69.71-68-125.14-118.2-95.91-86.9-235.15-208.2-425.68-370.9-347.04-296.3-803.98-678.5-1288.6-1083.8 626.6 378 1261.1 760.1 1766 1055.6 298.05 174.5 522.53 302.2 686.24 390.4 283.26 152.6 376.26 189.7 491.07 160.2 69.96-18.1 128.25-62.2 164.14-124.4 45.64-79 61.04-211.2-45.72-323.6-14.01-14.7-31.28-30.6-54.33-50.1-33.4-28.1-81-65.4-145.51-113.8-59.44-44.6-133.17-98.6-222.56-163.1 115.95 65.7 216.03 121.4 301.58 167.8 339.58 184 424.86 213.3 536.92 184.3 69.73-18.1 127.84-62.2 163.62-124.1 46.73-81 59.99-208.4-42.98-323.3-16-17.8-36.23-37.5-63.68-61.8-41.61-36.9-101.26-85.9-182.39-149.8-142.11-111.9-347.82-267.6-628.9-476.1-214.83-159.3-460.97-340-723.82-532.1 297.61 178.2 573.97 342.6 817.68 485.6 278.99 163.7 487.72 283.2 638.13 365.3 254.34 138.9 346.27 181.3 462.07 151.4 69.37-18 127.21-61.8 162.86-123.6 42.73-74 57.71-186.9-17.69-294 71.3 28.7 140.53 44.8 217.75 24.9 69.8-18 128-62.2 163.9-124.2 47-81.5 61.6-216.6-52.3-328.9-13.6-13.3-30.4-28.1-52.8-46.4-33.6-27.3-81.65-63.9-146.77-111.9-65.32-48-147.64-107.3-248.74-179.2 93.05 52.4 175.17 97.8 247.2 136.6 337.81 182.1 429.11 213 542.41 183.8 70.2-18.1 128.7-62.3 164.7-124.6 46.1-80.1 59.4-206.6-42-321.9-15.3-17.4-34.9-37.1-61.7-62-41.7-38.9-101.7-91.1-183.4-159.7-143.8-120.9-351.79-289.8-635.81-516.5-524.54-418.7-1230.8-972.3-1913.9-1507.7-84.15-66-169.99-133.2-256.67-201.2 998.98 589.9 2185.1 1300.9 3337.6 1991.8 1358.5 814.4 2641.7 1583.6 3635.6 2166 535.6 313.8 934.9 542.7 1220.7 699.7 159.7 87.7 281.3 151.5 371.7 195.1 133.1 64.1 228.3 104.1 335.5 76.3 69.9-18.1 128.1-62.3 164-124.4 25.1-43.4 94-197.3-71.6-353.2-25.5-24-59.5-52.2-106.9-88.7-80.2-61.6-196.5-144.9-355.6-254.7-265.5-183.3-642-434.7-1148.6-766.9 30.1 17.7 59.9 35.3 89.4 52.6 559.1 328.7 978.5 568.2 1282 732.2 170.4 92.1 301.4 158.9 400.6 204.2 152.6 69.8 248.7 100.4 350.6 74.3 71.7-18.5 131.4-63.5 167.9-126.8 30.7-53.2 86.3-193.9-59.8-352.5-29.4-32-69.2-68.5-124.9-114.8-93.1-77.4-228.6-180.1-414.2-314.1-329.2-237.6-803.8-564.4-1451.1-999.3-403.1-270.8-845.9-565.2-1313-873.8 755.6 451.4 1470.8 876.6 2069.5 1227.2 560.1 327.9 978.3 567.2 1278.4 731.6 167.8 91.9 295.7 158.7 391 204.4 133.2 63.8 235.8 106.8 344.3 78.6 70.1-18.1 128.5-62.4 164.5-124.7 25-43.3 93.7-196.7-71.1-352.1-24.8-23.4-57.9-51-104-86.8-78.3-60.8-191.6-143.2-346.6-251.9-277.1-194.4-677.9-466.5-1225.4-831.7-397.7-265.3-849.5-564.1-1331.4-881.6 482 288.2 935.3 557.5 1336.4 792.7 542.2 318 948.3 550 1241.3 709.2 164.4 89.3 290.5 154.2 385.3 198.4 149 69.4 243 100 342.8 74.2 70.9-18.3 130-62.9 166.2-125.7 49.6-85.8 61.6-228.1-67.7-346.5-4.9-4.6-10.3-9.3-16-14.2 9.8-1.5 19.6-3.5 29.5-6.1 70.3-18.2 128.8-62.6 164.8-124.9 18.1-31.5 100-196.3-73.8-350.9-22.1-19.6-51.1-42.7-91.3-72.6-67.9-50.5-166-119.2-300-210-21.5-14.6-43.9-29.7-67.1-45.3 100.2 52.3 183.6 93.8 252.3 125.5 159.9 73.8 259.8 106.5 362.6 80 71.3-18.5 130.7-63.3 167.1-126.4 24.5-42.5 92.4-193.6-65.2-353.1-28.1-28.4-65.5-60.8-117.9-102-49-38.6-110.5-84.3-185.8-138.2 56.2 18.3 110 24.2 169.8 8.8 69.4-18 127.2-61.9 162.9-123.6 23.4-40.5 88.8-184.6-52.3-336.6-21.4-23-49.4-49.1-88.2-82.1-62.6-53.2-153.2-124.4-277.2-217.5-220.1-165.4-539.8-396.1-977.5-705.4-810.9-572.9-1922.1-1340.9-2996.7-2083.7-74.2-51.2-148.5-102.6-222.9-154 20.3 12 40.5 24.1 60.8 36.1 984.4 585.5 1914.3 1138.5 2624.4 1553.5 382.2 223.4 665.9 386.4 867.3 498.4 112.6 62.6 197.9 108.4 260.6 139.9 92.6 46.6 180.1 90.5 287.5 62.5 68.6-17.9 125.8-61.5 161.1-122.7 47.9-82.9 61.5-220.6-57.5-336.1-17.4-16.9-39.5-35.7-69.5-59.1-46.7-36.5-114-85.3-205.6-149.2-144.6-100.8-348.4-238-621-418.1 62.5 17.3 106.7 15.7 154.7 3.3 69.8-18.1 128-62.2 163.8-124.2 47-81.4 60-210.2-44.6-327.7-18.7-21-42.8-44.2-75.7-72.9-50.9-44.5-124.2-103.4-224.2-180-175.9-134.8-430.8-321.7-779.3-571.7-643.6-461.6-1513.4-1070.8-2354.6-1660-611.2-428.1-1291-904.2-1862.5-1309.8 36.4-114-9.9-241.8-117.8-304.1-17.4-10-35.6-17.9-54.1-23.5-79.3-41.4-342.5-200.5-538.1-318.9-151.9-91.9-308.9-186.8-429.2-257.5-173.7-101.9-255.5-149.9-340.9-149.9" fill="#e03c4b"/>
</g>
</g>
</svg>
